<?xml version="1.0" encoding="utf-8"?>
<!-- Generator: Adobe Illustrator 15.0.0, SVG Export Plug-In . SVG Version: 6.00 Build 0)  -->
<!DOCTYPE svg PUBLIC "-//W3C//DTD SVG 1.1//EN" "http://www.w3.org/Graphics/SVG/1.1/DTD/svg11.dtd">
<svg version="1.1" id="Layer_1" xmlns="http://www.w3.org/2000/svg" xmlns:xlink="http://www.w3.org/1999/xlink" x="0px" y="0px"
	 width="200px" height="50px" viewBox="0 0 200 50" enable-background="new 0 0 200 50" xml:space="preserve">
<g>
	<path fill="#FFFFFF" d="M60.586,38.262v1.754h-5.963h-0.219h-5.964v-1.754c0-0.426,0.203-0.681,0.614-0.766
		c0.204-0.036,1.481-0.147,3.833-0.327V24.407c0.001-0.496,0.016-1.017,0.047-1.564l-3.158,2.643
		c-0.131,0.111-0.266,0.187-0.402,0.228c-0.137,0.042-0.27,0.061-0.402,0.061c-0.203,0-0.388-0.045-0.555-0.13
		c-0.167-0.085-0.291-0.185-0.371-0.296l-1.185-1.625l6.695-5.693h3.083v19.178c2.035,0.159,3.147,0.252,3.336,0.288
		C60.382,37.582,60.586,37.838,60.586,38.262"/>
	<path fill="#FFFFFF" d="M72.919,26.715c0.783,0.275,1.475,0.687,2.072,1.237c0.598,0.553,1.078,1.237,1.442,2.06
		c0.366,0.815,0.549,1.775,0.549,2.869c0,1.021-0.188,1.979-0.562,2.878c-0.375,0.895-0.9,1.677-1.58,2.344
		c-0.677,0.67-1.496,1.192-2.453,1.579s-2.012,0.578-3.167,0.578c-1.173,0-2.227-0.188-3.159-0.562
		c-0.93-0.377-1.725-0.899-2.383-1.572c-0.659-0.674-1.162-1.48-1.51-2.43c-0.35-0.946-0.525-1.996-0.525-3.152
		c0-1.03,0.209-2.092,0.629-3.18c0.421-1.09,1.071-2.218,1.953-3.393l5.24-7.031c0.182-0.243,0.448-0.451,0.797-0.623
		c0.348-0.172,0.752-0.258,1.206-0.258h3.342l-6.514,7.972c-0.142,0.173-0.277,0.336-0.404,0.485
		c-0.125,0.153-0.25,0.31-0.372,0.474c0.425-0.212,0.884-0.382,1.375-0.503c0.49-0.119,1.024-0.18,1.602-0.18
		C71.328,26.304,72.135,26.442,72.919,26.715 M65.494,34.785c0.166,0.501,0.415,0.93,0.744,1.282
		c0.329,0.356,0.736,0.633,1.222,0.829c0.486,0.198,1.049,0.296,1.687,0.296c0.598,0,1.146-0.102,1.647-0.305
		c0.502-0.2,0.93-0.484,1.29-0.849c0.36-0.365,0.641-0.792,0.843-1.283c0.203-0.487,0.304-1.024,0.304-1.603
		c0-0.625-0.096-1.191-0.289-1.691c-0.193-0.502-0.466-0.928-0.82-1.275c-0.354-0.35-0.779-0.614-1.276-0.8
		c-0.495-0.18-1.044-0.271-1.642-0.271c-0.597,0-1.138,0.102-1.624,0.303c-0.486,0.202-0.903,0.485-1.252,0.844
		c-0.351,0.358-0.619,0.785-0.806,1.274c-0.187,0.493-0.28,1.021-0.28,1.589C65.242,33.73,65.327,34.283,65.494,34.785"/>
	<path fill="#FFFFFF" d="M82.556,39.805c-0.936-0.304-1.739-0.734-2.408-1.292c-0.668-0.558-1.187-1.23-1.556-2.019
		c-0.37-0.79-0.555-1.671-0.555-2.641c0-1.297,0.32-2.392,0.958-3.289c0.637-0.895,1.63-1.56,2.975-1.998
		c-1.073-0.442-1.875-1.076-2.407-1.896c-0.532-0.82-0.797-1.806-0.797-2.96c0-0.832,0.169-1.604,0.509-2.326
		c0.338-0.719,0.812-1.344,1.42-1.875c0.608-0.531,1.333-0.946,2.179-1.245c0.845-0.299,1.773-0.448,2.787-0.448
		s1.941,0.149,2.786,0.448c0.846,0.297,1.573,0.714,2.179,1.245c0.606,0.531,1.079,1.156,1.419,1.875
		c0.34,0.72,0.509,1.494,0.509,2.326c0,1.154-0.268,2.14-0.807,2.96c-0.535,0.82-1.335,1.454-2.398,1.896
		c1.348,0.438,2.339,1.104,2.977,1.998c0.637,0.897,0.956,1.992,0.956,3.289c0,0.97-0.185,1.851-0.556,2.641
		c-0.369,0.79-0.886,1.461-1.553,2.019c-0.67,0.558-1.471,0.988-2.409,1.292c-0.935,0.302-1.972,0.455-3.103,0.455
		C84.527,40.26,83.491,40.107,82.556,39.805 M87.285,37.063c0.465-0.178,0.858-0.422,1.177-0.737
		c0.319-0.312,0.56-0.688,0.722-1.122c0.162-0.437,0.242-0.907,0.242-1.414c0-1.205-0.334-2.116-1-2.735
		c-0.671-0.615-1.591-0.927-2.763-0.927c-1.174,0-2.097,0.312-2.764,0.927c-0.668,0.619-1.002,1.53-1.002,2.735
		c0,0.505,0.082,0.978,0.243,1.414c0.164,0.433,0.403,0.81,0.721,1.122c0.317,0.315,0.713,0.56,1.176,0.737
		c0.466,0.179,1.006,0.265,1.626,0.265C86.277,37.329,86.819,37.242,87.285,37.063 M87.193,26.897
		c0.416-0.192,0.749-0.446,1.001-0.765c0.253-0.32,0.434-0.685,0.538-1.095c0.105-0.409,0.16-0.832,0.16-1.268
		c0-0.414-0.065-0.81-0.199-1.181c-0.13-0.376-0.329-0.708-0.589-0.996c-0.264-0.288-0.598-0.519-1.004-0.691
		c-0.405-0.173-0.885-0.26-1.441-0.26c-0.557,0-1.038,0.087-1.442,0.26c-0.406,0.172-0.743,0.402-1.011,0.691
		c-0.269,0.289-0.465,0.62-0.594,0.996c-0.126,0.371-0.188,0.769-0.188,1.181c0,0.437,0.054,0.859,0.161,1.268
		c0.106,0.411,0.286,0.775,0.54,1.095c0.253,0.318,0.586,0.575,1.001,0.765c0.417,0.191,0.926,0.288,1.534,0.288
		C86.269,27.186,86.777,27.089,87.193,26.897"/>
	<path fill="#FFFFFF" d="M119.559,38.231v1.784h-2.3h-3.753V30.1c0-0.95-0.217-1.687-0.658-2.207
		c-0.441-0.521-1.102-0.781-1.982-0.781c-0.647,0-1.255,0.146-1.823,0.441c-0.566,0.292-1.103,0.692-1.607,1.198v8.258
		c0.379,0.065,0.677,0.119,0.896,0.159c0.218,0.04,0.369,0.065,0.453,0.08c0.082,0.016,0.146,0.027,0.189,0.034
		c0.508,0.11,0.762,0.428,0.762,0.952v1.784h-2.299h-3.751h-2.3v-1.784c0-0.524,0.254-0.842,0.758-0.952
		c0.048-0.007,0.111-0.019,0.193-0.034c0.083-0.015,0.232-0.04,0.451-0.08c0.22-0.039,0.519-0.094,0.898-0.159V20.463
		c-0.38-0.066-0.677-0.12-0.898-0.16c-0.219-0.04-0.368-0.067-0.451-0.083c-0.082-0.013-0.146-0.025-0.193-0.033
		c-0.504-0.109-0.758-0.426-0.758-0.951v-1.785h2.3h3.751v8.671c0.607-0.579,1.276-1.043,2.004-1.398
		c0.729-0.354,1.585-0.532,2.566-0.532c0.851,0.001,1.606,0.145,2.263,0.434c0.66,0.288,1.207,0.691,1.646,1.215
		c0.442,0.52,0.774,1.143,1.001,1.865c0.229,0.724,0.345,1.52,0.345,2.39v6.907c0.379,0.066,0.676,0.12,0.898,0.159
		c0.218,0.039,0.367,0.066,0.45,0.081s0.148,0.027,0.192,0.034C119.308,37.391,119.559,37.708,119.559,38.231"/>
	<path fill="#FFFFFF" d="M131.45,24.757c0.945,0.374,1.752,0.904,2.42,1.594c0.668,0.688,1.185,1.528,1.55,2.521
		c0.364,0.993,0.549,2.101,0.549,3.325c0,1.232-0.185,2.346-0.549,3.34c-0.365,0.993-0.882,1.836-1.55,2.536
		c-0.67,0.699-1.475,1.235-2.42,1.608c-0.949,0.375-2.003,0.562-3.169,0.562c-1.162,0-2.221-0.187-3.172-0.562
		c-0.952-0.374-1.764-0.909-2.436-1.608c-0.675-0.7-1.196-1.543-1.566-2.536c-0.368-0.993-0.553-2.107-0.553-3.34
		c0-1.226,0.185-2.332,0.553-3.325c0.37-0.993,0.892-1.832,1.566-2.521c0.672-0.688,1.483-1.22,2.436-1.594
		c0.951-0.375,2.01-0.562,3.172-0.562C129.447,24.194,130.501,24.382,131.45,24.757 M131.16,36.055
		c0.622-0.871,0.936-2.148,0.936-3.827c0-1.682-0.313-2.962-0.936-3.843c-0.624-0.88-1.582-1.321-2.879-1.321
		c-1.314,0-2.288,0.441-2.912,1.326c-0.628,0.889-0.943,2.165-0.943,3.835c0,1.669,0.313,2.944,0.943,3.819
		c0.624,0.876,1.6,1.314,2.912,1.314C129.578,37.359,130.536,36.926,131.16,36.055"/>
	<path fill="#FFFFFF" d="M149.271,24.681l-0.49,2.808c-0.029,0.183-0.093,0.312-0.195,0.389c-0.103,0.075-0.241,0.115-0.411,0.115
		c-0.151,0-0.359-0.036-0.623-0.107c-0.263-0.071-0.612-0.105-1.046-0.105c-0.781,0-1.45,0.215-2.006,0.644
		c-0.558,0.432-1.028,1.061-1.412,1.893v6.691c1.291,0.229,1.307,0.237,1.54,0.277c0.504,0.108,0.758,0.426,0.758,0.949v1.784
		h-2.299l0,0h-3.75h-2.299v-1.784c0-0.523,0.253-0.841,0.76-0.949c0.232-0.04,0.247-0.048,1.539-0.277v-9.559
		c-1.292-0.229-1.307-0.235-1.539-0.275c-0.507-0.108-0.76-0.426-0.76-0.95v-1.784h2.299v-0.002h2.199
		c0.387,0,0.656,0.072,0.809,0.212c0.151,0.144,0.255,0.388,0.303,0.727l0.229,1.884c0.556-0.961,1.209-1.719,1.96-2.276
		c0.749-0.557,1.588-0.834,2.52-0.834C148.125,24.149,148.765,24.325,149.271,24.681"/>
	<path fill="#FFFFFF" d="M164.507,38.201v1.784h-1.886h-0.416h-1.271c-0.354,0-0.632-0.052-0.836-0.159
		c-0.203-0.106-0.354-0.32-0.456-0.646l-0.333-1.106c-0.395,0.354-0.781,0.665-1.163,0.934c-0.378,0.27-0.77,0.494-1.177,0.677
		c-0.404,0.18-0.832,0.318-1.29,0.408c-0.457,0.092-0.962,0.137-1.519,0.137c-0.658,0-1.267-0.09-1.821-0.265
		c-0.557-0.178-1.038-0.447-1.436-0.801c-0.4-0.355-0.712-0.795-0.936-1.327c-0.221-0.526-0.334-1.14-0.334-1.843
		c0-0.589,0.155-1.17,0.464-1.743c0.307-0.572,0.823-1.092,1.539-1.555c0.72-0.462,1.676-0.847,2.871-1.149
		c1.194-0.306,2.677-0.458,4.449-0.458V30.17c0-1.049-0.22-1.827-0.662-2.331c-0.438-0.505-1.081-0.76-1.919-0.76
		c-0.61,0-1.114,0.071-1.518,0.213c-0.406,0.144-0.758,0.302-1.057,0.479c-0.297,0.176-0.572,0.333-0.825,0.477
		c-0.255,0.142-0.534,0.213-0.836,0.213c-0.255,0-0.472-0.067-0.654-0.196c-0.184-0.135-0.328-0.295-0.441-0.487l-0.683-1.199
		c1.792-1.641,3.954-2.46,6.484-2.46c0.91,0,1.722,0.151,2.435,0.449c0.715,0.299,1.319,0.712,1.815,1.245s0.872,1.166,1.133,1.906
		c0.255,0.737,0.387,1.548,0.387,2.429v6.902c0.349,0.061,0.612,0.109,0.8,0.144c0.19,0.035,0.298,0.054,0.327,0.058
		C164.252,37.359,164.509,37.675,164.507,38.201 M158.959,33.382c-1.093,0-2.008,0.068-2.738,0.205
		c-0.733,0.138-1.322,0.313-1.77,0.527c-0.445,0.215-0.764,0.466-0.948,0.751c-0.189,0.287-0.282,0.597-0.282,0.935
		c0,0.664,0.195,1.137,0.582,1.42c0.392,0.288,0.902,0.429,1.526,0.429c0.385,0,0.742-0.033,1.066-0.104
		c0.323-0.071,0.628-0.174,0.918-0.314c0.286-0.14,0.565-0.311,0.832-0.517c0.27-0.204,0.538-0.444,0.813-0.722V33.382z"/>
	<path fill="#FFFFFF" d="M176.873,35.082c0,0.749-0.137,1.439-0.41,2.072c-0.274,0.632-0.675,1.179-1.2,1.641
		c-0.525,0.461-1.178,0.818-1.949,1.076c-0.773,0.261-1.664,0.389-2.666,0.389c-1.931,0-3.821-0.41-4.938-0.834v-0.003v-1.521v-2.89
		h0.133h0.367h1.248c0.391-0.002,0.628,0.188,0.708,0.566c0.026,0.145,0.083,0.562,0.204,1.792c0.829,0.257,1.799,0.261,2.459,0.261
		c0.444,0,0.828-0.053,1.146-0.159c0.319-0.105,0.581-0.245,0.79-0.418c0.207-0.172,0.359-0.37,0.457-0.599
		c0.095-0.228,0.143-0.463,0.143-0.708c0-0.365-0.11-0.663-0.327-0.897c-0.217-0.232-0.505-0.436-0.866-0.606
		c-0.358-0.172-0.767-0.325-1.229-0.463c-0.462-0.137-0.934-0.285-1.413-0.448c-0.482-0.162-0.951-0.352-1.412-0.571
		c-0.462-0.217-0.871-0.493-1.231-0.827c-0.358-0.332-0.646-0.741-0.864-1.229c-0.217-0.486-0.326-1.071-0.326-1.76
		c0-0.639,0.125-1.246,0.379-1.823c0.255-0.577,0.624-1.081,1.116-1.511c0.489-0.427,1.102-0.773,1.838-1.032
		c0.73-0.256,1.579-0.387,2.543-0.387c1.507,0,2.344,0.122,4.525,0.806h-0.002v4.41h-0.132h-0.366h-1.25
		c-0.391,0-0.625-0.187-0.708-0.566c-0.023-0.142-0.078-0.539-0.199-1.714c-0.388-0.129-1.109-0.204-1.811-0.204
		c-0.738,0-1.322,0.158-1.744,0.471c-0.427,0.313-0.641,0.725-0.641,1.231c0,0.335,0.109,0.614,0.329,0.843
		c0.218,0.227,0.504,0.427,0.867,0.6c0.355,0.173,0.762,0.327,1.222,0.462c0.454,0.137,0.92,0.287,1.395,0.448
		c0.477,0.163,0.943,0.349,1.397,0.555c0.456,0.209,0.862,0.471,1.224,0.79c0.358,0.319,0.648,0.7,0.864,1.146
		C176.764,33.918,176.873,34.454,176.873,35.082"/>
</g>
<g>
	<path fill="#FFFFFF" d="M21.692,12.326l-0.466,0.302c0.023,0.028,0.044,0.056,0.067,0.083L21.692,12.326z"/>
	<g>
		<path fill="#FFFFFF" d="M28.084,15.284c-2.984-2.852-6.973-4.61-11.372-4.61C7.482,10.674,0,18.356,0,27.835
			C0,37.314,7.482,45,16.712,45c9.23,0,16.712-7.686,16.712-17.165c0-4.07-1.386-7.805-3.693-10.746l7.948-7.699l0.739-0.716
			c-0.023-0.028-0.044-0.055-0.067-0.084L37.49,9.15L28.084,15.284z M30.958,27.168c0,7.457-6.364,13.501-14.214,13.501
			c-7.851,0-14.214-6.044-14.214-13.501c0-7.455,6.364-13.5,14.214-13.5c3.444,0,6.604,1.167,9.064,3.103l-8.574,5.588l-6.442-3.554
			l7.397,9.464l9.73-9.422C29.816,21.141,30.958,24.024,30.958,27.168z"/>
	</g>
</g>
</svg>
