<?xml version="1.0" encoding="utf-8"?>
<!-- Generator: Adobe Illustrator 15.0.0, SVG Export Plug-In . SVG Version: 6.00 Build 0)  -->
<!DOCTYPE svg PUBLIC "-//W3C//DTD SVG 1.1//EN" "http://www.w3.org/Graphics/SVG/1.1/DTD/svg11.dtd">
<svg version="1.1" id="Layer_1" xmlns="http://www.w3.org/2000/svg" xmlns:xlink="http://www.w3.org/1999/xlink" x="0px" y="0px"
	 width="200px" height="50px" viewBox="0 0 200 50" enable-background="new 0 0 200 50" xml:space="preserve">
<g>
	<path fill="#FFFFFF" d="M68.351,37.398v1.979h-6.728h-0.247h-6.728v-1.979c0-0.48,0.229-0.768,0.692-0.864
		c0.23-0.04,1.671-0.166,4.325-0.368V21.768c0.001-0.559,0.018-1.147,0.053-1.765l-3.563,2.982c-0.148,0.125-0.3,0.211-0.454,0.257
		c-0.154,0.047-0.304,0.068-0.453,0.068c-0.229,0-0.438-0.05-0.626-0.146s-0.328-0.209-0.418-0.334l-1.337-1.834l7.553-6.423h3.478
		v21.636c2.295,0.18,3.55,0.285,3.763,0.325C68.121,36.631,68.351,36.92,68.351,37.398"/>
	<path fill="#FFFFFF" d="M82.265,24.371c0.884,0.31,1.664,0.775,2.337,1.396c0.675,0.623,1.217,1.396,1.627,2.323
		c0.413,0.921,0.619,2.003,0.619,3.237c0,1.153-0.212,2.234-0.634,3.247c-0.423,1.009-1.016,1.892-1.782,2.645
		c-0.764,0.755-1.688,1.346-2.767,1.781c-1.08,0.435-2.271,0.652-3.572,0.652c-1.324,0-2.513-0.212-3.564-0.635
		c-1.049-0.425-1.946-1.014-2.689-1.773s-1.311-1.671-1.704-2.742c-0.395-1.066-0.592-2.251-0.592-3.555
		c0-1.163,0.236-2.36,0.71-3.587c0.474-1.23,1.208-2.503,2.202-3.828l5.912-7.933c0.205-0.274,0.505-0.508,0.899-0.702
		c0.393-0.194,0.848-0.291,1.361-0.291h3.77l-7.349,8.994c-0.161,0.194-0.312,0.378-0.455,0.547
		c-0.142,0.172-0.282,0.349-0.42,0.533c0.48-0.239,0.997-0.43,1.551-0.567c0.553-0.134,1.156-0.203,1.807-0.203
		C80.469,23.907,81.38,24.064,82.265,24.371 M73.888,33.477c0.187,0.564,0.468,1.048,0.839,1.446
		c0.371,0.402,0.83,0.714,1.378,0.935c0.549,0.224,1.183,0.334,1.903,0.334c0.674,0,1.293-0.115,1.858-0.344
		c0.566-0.226,1.049-0.547,1.456-0.957c0.406-0.412,0.722-0.894,0.95-1.447c0.229-0.552,0.343-1.157,0.343-1.809
		c0-0.705-0.108-1.344-0.325-1.909c-0.218-0.566-0.526-1.046-0.925-1.439c-0.399-0.392-0.879-0.692-1.44-0.901
		c-0.559-0.203-1.178-0.307-1.852-0.307c-0.673,0-1.284,0.115-1.832,0.342c-0.548,0.228-1.019,0.547-1.412,0.952
		c-0.396,0.404-0.698,0.886-0.909,1.438c-0.211,0.555-0.316,1.151-0.316,1.792C73.604,32.286,73.699,32.91,73.888,33.477"/>
	<path fill="#FFFFFF" d="M93.136,39.139c-1.055-0.343-1.961-0.829-2.716-1.458c-0.754-0.628-1.339-1.388-1.755-2.277
		c-0.417-0.891-0.626-1.885-0.626-2.979c0-1.463,0.361-2.698,1.08-3.711c0.719-1.009,1.839-1.759,3.357-2.253
		c-1.211-0.5-2.115-1.215-2.716-2.141c-0.601-0.925-0.899-2.037-0.899-3.339c0-0.938,0.191-1.81,0.574-2.623
		c0.382-0.811,0.916-1.517,1.602-2.116c0.686-0.599,1.504-1.067,2.458-1.404c0.954-0.337,2.001-0.505,3.144-0.505
		s2.19,0.168,3.143,0.505c0.954,0.336,1.775,0.805,2.459,1.404c0.684,0.599,1.217,1.305,1.601,2.116
		c0.383,0.812,0.574,1.685,0.574,2.623c0,1.302-0.302,2.414-0.91,3.339c-0.604,0.926-1.507,1.641-2.705,2.141
		c1.519,0.494,2.638,1.244,3.357,2.253c0.719,1.013,1.078,2.248,1.078,3.711c0,1.095-0.208,2.089-0.626,2.979
		c-0.416,0.891-1.001,1.649-1.753,2.277c-0.756,0.629-1.659,1.115-2.717,1.458c-1.055,0.34-2.225,0.514-3.501,0.514
		C95.36,39.652,94.191,39.48,93.136,39.139 M98.472,36.047c0.525-0.201,0.968-0.477,1.328-0.832
		c0.359-0.354,0.631-0.776,0.814-1.267c0.182-0.492,0.273-1.023,0.273-1.595c0-1.359-0.377-2.387-1.128-3.085
		c-0.757-0.694-1.795-1.045-3.118-1.045c-1.324,0-2.365,0.351-3.118,1.045c-0.754,0.698-1.131,1.726-1.131,3.085
		c0,0.57,0.093,1.103,0.275,1.595c0.184,0.49,0.455,0.913,0.813,1.267c0.358,0.355,0.804,0.631,1.327,0.832
		c0.526,0.201,1.135,0.298,1.834,0.298C97.335,36.346,97.946,36.248,98.472,36.047 M98.368,24.577
		c0.47-0.216,0.845-0.504,1.13-0.863c0.286-0.361,0.49-0.772,0.607-1.235c0.119-0.461,0.181-0.939,0.181-1.43
		c0-0.467-0.074-0.914-0.224-1.333c-0.147-0.425-0.371-0.798-0.665-1.124c-0.298-0.325-0.675-0.585-1.133-0.779
		c-0.457-0.195-0.999-0.293-1.626-0.293c-0.628,0-1.17,0.098-1.627,0.293c-0.458,0.194-0.838,0.453-1.14,0.779
		c-0.303,0.326-0.525,0.699-0.67,1.124c-0.142,0.419-0.212,0.867-0.212,1.333c0,0.492,0.061,0.969,0.181,1.43
		c0.12,0.464,0.322,0.874,0.609,1.235c0.285,0.359,0.661,0.65,1.129,0.863c0.47,0.216,1.045,0.326,1.731,0.326
		S97.899,24.793,98.368,24.577"/>
	<path fill="#FFFFFF" d="M134.881,37.364v2.013h-2.594h-4.234V28.19c0-1.073-0.245-1.902-0.743-2.49s-1.242-0.881-2.236-0.881
		c-0.73,0-1.416,0.164-2.057,0.497c-0.639,0.331-1.243,0.782-1.814,1.353v9.316c0.428,0.073,0.764,0.134,1.012,0.179
		c0.245,0.045,0.416,0.074,0.509,0.091c0.094,0.017,0.165,0.031,0.215,0.038c0.572,0.124,0.859,0.482,0.859,1.074v2.013h-2.593
		h-4.233h-2.594v-2.013c0-0.592,0.287-0.95,0.857-1.074c0.052-0.007,0.124-0.021,0.216-0.038c0.094-0.017,0.263-0.046,0.51-0.091
		c0.248-0.044,0.584-0.105,1.013-0.179V17.319c-0.429-0.075-0.763-0.136-1.013-0.181c-0.247-0.044-0.416-0.076-0.51-0.093
		c-0.092-0.015-0.164-0.028-0.216-0.037c-0.57-0.123-0.857-0.481-0.857-1.073v-2.014h2.594h4.233v9.782
		c0.685-0.653,1.439-1.176,2.261-1.576s1.787-0.6,2.895-0.6c0.96,0.001,1.812,0.163,2.553,0.489c0.744,0.325,1.362,0.78,1.858,1.371
		c0.498,0.587,0.873,1.289,1.129,2.105c0.258,0.816,0.388,1.714,0.388,2.696v7.792c0.427,0.074,0.763,0.136,1.014,0.18
		c0.245,0.044,0.414,0.074,0.508,0.091c0.093,0.017,0.167,0.031,0.216,0.039C134.597,36.415,134.881,36.773,134.881,37.364"/>
	<path fill="#FFFFFF" d="M148.297,22.162c1.067,0.422,1.976,1.021,2.731,1.799c0.753,0.776,1.335,1.724,1.747,2.843
		c0.413,1.121,0.619,2.371,0.619,3.753c0,1.39-0.206,2.646-0.619,3.767c-0.412,1.122-0.994,2.073-1.747,2.861
		c-0.756,0.789-1.664,1.394-2.731,1.815c-1.07,0.423-2.259,0.634-3.574,0.634c-1.312,0-2.506-0.211-3.578-0.634
		c-1.075-0.422-1.99-1.026-2.749-1.815c-0.761-0.788-1.35-1.74-1.767-2.861c-0.415-1.12-0.624-2.377-0.624-3.767
		c0-1.384,0.209-2.632,0.624-3.753c0.417-1.119,1.006-2.066,1.767-2.843c0.759-0.777,1.674-1.377,2.749-1.799
		c1.072-0.423,2.266-0.634,3.578-0.634C146.038,21.528,147.227,21.739,148.297,22.162 M147.97,34.908
		c0.702-0.982,1.056-2.423,1.056-4.317c0-1.898-0.354-3.341-1.056-4.335c-0.704-0.994-1.784-1.491-3.247-1.491
		c-1.484,0-2.582,0.497-3.286,1.496c-0.709,1.003-1.065,2.442-1.065,4.327c0,1.883,0.354,3.321,1.065,4.308
		c0.704,0.989,1.804,1.483,3.286,1.483C146.186,36.38,147.266,35.89,147.97,34.908"/>
	<path fill="#FFFFFF" d="M168.402,22.076l-0.552,3.168c-0.034,0.206-0.105,0.351-0.221,0.438c-0.116,0.085-0.271,0.13-0.464,0.13
		c-0.17,0-0.405-0.041-0.702-0.12c-0.297-0.081-0.692-0.12-1.181-0.12c-0.881,0-1.635,0.242-2.263,0.727
		c-0.629,0.486-1.159,1.196-1.593,2.134v7.55c1.457,0.258,1.475,0.267,1.737,0.312c0.569,0.122,0.856,0.48,0.856,1.071v2.013h-2.594
		l0,0h-4.229h-2.594v-2.013c0-0.591,0.284-0.949,0.856-1.071c0.263-0.045,0.279-0.054,1.737-0.312V25.198
		c-1.458-0.258-1.475-0.265-1.737-0.31c-0.572-0.122-0.856-0.48-0.856-1.072v-2.013h2.594v-0.002h2.481
		c0.435,0,0.739,0.081,0.911,0.239c0.171,0.162,0.287,0.438,0.341,0.82l0.258,2.125c0.628-1.084,1.364-1.939,2.211-2.568
		c0.845-0.628,1.792-0.941,2.843-0.941C167.109,21.477,167.831,21.675,168.402,22.076"/>
	<path fill="#FFFFFF" d="M185.591,37.33v2.013h-2.128h-0.469h-1.434c-0.4,0-0.712-0.059-0.942-0.18
		c-0.229-0.12-0.4-0.362-0.514-0.729l-0.378-1.249c-0.444,0.399-0.881,0.751-1.311,1.053c-0.427,0.305-0.868,0.558-1.327,0.764
		c-0.457,0.203-0.94,0.36-1.456,0.461c-0.516,0.104-1.085,0.154-1.713,0.154c-0.743,0-1.429-0.101-2.055-0.299
		c-0.628-0.201-1.17-0.503-1.619-0.903c-0.452-0.401-0.803-0.898-1.056-1.497c-0.25-0.594-0.376-1.286-0.376-2.079
		c0-0.664,0.175-1.32,0.523-1.967c0.346-0.646,0.928-1.231,1.737-1.754c0.811-0.521,1.89-0.955,3.237-1.296
		c1.348-0.345,3.021-0.517,5.02-0.517V28.27c0-1.184-0.248-2.062-0.746-2.632c-0.496-0.568-1.22-0.856-2.165-0.856
		c-0.688,0-1.257,0.081-1.713,0.24c-0.457,0.162-0.854,0.341-1.19,0.54s-0.648,0.378-0.933,0.54c-0.287,0.159-0.602,0.24-0.942,0.24
		c-0.287,0-0.533-0.076-0.739-0.223c-0.206-0.15-0.37-0.332-0.498-0.548l-0.769-1.354c2.021-1.851,4.46-2.776,7.314-2.776
		c1.028,0,1.943,0.171,2.749,0.507c0.805,0.338,1.487,0.804,2.047,1.404c0.56,0.6,0.984,1.316,1.276,2.151
		c0.289,0.832,0.437,1.745,0.437,2.739v7.787c0.393,0.068,0.692,0.123,0.903,0.162c0.214,0.039,0.336,0.062,0.37,0.066
		C185.303,36.38,185.593,36.736,185.591,37.33 M179.332,31.892c-1.232,0-2.266,0.078-3.09,0.232
		c-0.827,0.155-1.492,0.354-1.996,0.596c-0.503,0.242-0.861,0.525-1.069,0.847c-0.214,0.323-0.319,0.673-0.319,1.053
		c0,0.75,0.221,1.282,0.657,1.603c0.442,0.324,1.017,0.483,1.721,0.483c0.435,0,0.837-0.037,1.203-0.117
		c0.365-0.08,0.709-0.196,1.035-0.354c0.324-0.157,0.639-0.35,0.94-0.582c0.304-0.231,0.608-0.502,0.918-0.815V31.892z"/>
	<path fill="#FFFFFF" d="M199.541,33.811c0,0.845-0.154,1.625-0.462,2.337c-0.309,0.713-0.761,1.33-1.354,1.851
		s-1.328,0.925-2.199,1.215c-0.874,0.294-1.877,0.439-3.009,0.439c-2.177,0-4.31-0.464-5.569-0.942v-0.003v-1.716v-3.259h0.15h0.414
		h1.409c0.441-0.003,0.707,0.211,0.798,0.638c0.029,0.164,0.093,0.634,0.23,2.022c0.936,0.29,2.03,0.295,2.773,0.295
		c0.503,0,0.936-0.06,1.294-0.18c0.36-0.119,0.655-0.278,0.891-0.471c0.233-0.194,0.405-0.418,0.516-0.676
		c0.107-0.257,0.161-0.522,0.161-0.799c0-0.411-0.125-0.748-0.37-1.011s-0.569-0.492-0.977-0.685
		c-0.405-0.194-0.864-0.368-1.385-0.523c-0.522-0.154-1.055-0.322-1.595-0.505c-0.545-0.184-1.073-0.396-1.593-0.644
		c-0.521-0.245-0.982-0.557-1.39-0.933c-0.405-0.375-0.729-0.837-0.975-1.388c-0.245-0.549-0.368-1.208-0.368-1.985
		c0-0.72,0.141-1.406,0.428-2.057c0.287-0.652,0.704-1.219,1.259-1.704c0.552-0.483,1.244-0.873,2.074-1.165
		c0.824-0.289,1.781-0.436,2.869-0.436c1.7,0,2.643,0.137,5.104,0.909h-0.002v4.975h-0.147h-0.415h-1.409
		c-0.441,0-0.706-0.211-0.8-0.638c-0.026-0.16-0.088-0.61-0.224-1.935c-0.438-0.145-1.251-0.229-2.042-0.229
		c-0.834,0-1.492,0.177-1.968,0.53c-0.481,0.354-0.722,0.817-0.722,1.389c0,0.378,0.123,0.694,0.37,0.952
		c0.246,0.255,0.569,0.48,0.978,0.675c0.402,0.195,0.861,0.37,1.379,0.522c0.513,0.154,1.038,0.324,1.573,0.505
		c0.538,0.184,1.065,0.393,1.576,0.625c0.515,0.237,0.974,0.533,1.382,0.892c0.404,0.36,0.731,0.79,0.974,1.293
		C199.418,32.497,199.541,33.102,199.541,33.811"/>
</g>
<g>
	<path fill="#FFFFFF" d="M24.472,8.138l-0.526,0.341c0.026,0.032,0.05,0.063,0.076,0.094L24.472,8.138z"/>
	<g>
		<path fill="#FFFFFF" d="M31.684,11.476c-3.366-3.218-7.867-5.201-12.829-5.201C8.441,6.275,0,14.941,0,25.635
			C0,36.329,8.441,45,18.854,45c10.413,0,18.854-8.671,18.854-19.365c0-4.591-1.564-8.805-4.167-12.123l8.967-8.686l0.834-0.808
			c-0.026-0.031-0.05-0.062-0.076-0.095l-0.971,0.633L31.684,11.476z M34.925,24.882c0,8.413-7.18,15.231-16.036,15.231
			c-8.857,0-16.036-6.818-16.036-15.231c0-8.41,7.179-15.229,16.036-15.229c3.886,0,7.45,1.316,10.226,3.5l-9.673,6.305l-7.267-4.01
			l8.345,10.677l10.977-10.63C33.637,18.083,34.925,21.336,34.925,24.882z"/>
	</g>
</g>
</svg>
